<svg xmlns="http://www.w3.org/2000/svg" xmlns:xlink="http://www.w3.org/1999/xlink" viewBox="0 0 200 100" width="200" height="100" style="background:#ed4139"><defs><style></style><linearGradient id="degrade_mas_oscuro_2" data-name="degrade mas oscuro 2" x1="-96.44" y1="24.2" x2="364.23" y2="26.86" gradientUnits="userSpaceOnUse"><stop offset="0" stop-color="#b28d68"/><stop offset=".23" stop-color="#e7cc96"/><stop offset=".52" stop-color="#ffeeba"/><stop offset=".82" stop-color="#e7cc96"/><stop offset=".99" stop-color="#b28d68"/></linearGradient><linearGradient id="degrade_mas_oscuro_2-2" x1="-154.46" y1="23.9" x2="306.21" y2="26.57" xlink:href="#degrade_mas_oscuro_2"/><linearGradient id="degrade_mas_oscuro_2-3" x1="-213.76" y1="27.05" x2="246.9" y2="29.72" xlink:href="#degrade_mas_oscuro_2"/><linearGradient id="degrade_mas_oscuro_2-4" x1="-213.67" y1="10.39" x2="247" y2="13.05" xlink:href="#degrade_mas_oscuro_2"/><linearGradient id="degrade_mas_oscuro_2-5" x1="-213.74" y1="23.53" x2="246.92" y2="26.2" xlink:href="#degrade_mas_oscuro_2"/><linearGradient id="degrade_mas_oscuro_2-6" x1="-274.82" y1="12.08" x2="163.12" y2="14.61" xlink:href="#degrade_mas_oscuro_2"/><linearGradient id="degrade_mas_oscuro_2-7" x1="-274.9" y1="25.02" x2="185.77" y2="27.69" xlink:href="#degrade_mas_oscuro_2"/></defs><path fill="#cd3d2f" d="M44.06 23.18a18 18 0 0 0 1.47 1.09 5.29 5.29 0 0 0-1.24-3.17c.27.14 1 .58 1 .58a5.48 5.48 0 0 0-1.74-2.92 5.51 5.51 0 0 1-1-2.25v-.05l2.32-2.06a4.6 4.6 0 0 0 .13-1.78c0-1.49-.2-1.45-.25-1.49A1 1 0 0 0 44 11a10.13 10.13 0 0 0-1.48.47c-.08 0-.49.17-.61 0A2.35 2.35 0 0 0 40.2 9.4c-.65-.21-2.6-.57-2.6-.57s-.84-1-1-1.3-.66.27-.89.53a1.29 1.29 0 0 1-.42.35c-1.34-.87-1.79-1.17-2.06-1s-.54 2.1-.54 2.1c-1-.17-1.52 1.48-1.52 1.48a1.79 1.79 0 0 1 1.15 0c-.79.21-1.17 1.85-1.17 1.85.38-.35 1 0 1 0a3.74 3.74 0 0 0-1.32 2.88c.23-.35.92-.33.92-.33a2.93 2.93 0 0 0-.55 2.48 1 1 0 0 1 .65-.77 2 2 0 0 1-.67 1.67c-.84.87-4.06 1.76-5.08 1.88s-3.53.18-3.53.18A2.54 2.54 0 0 0 22 19.4a6.28 6.28 0 0 1 1.61.71c.09-2.33-1-3.46-1.18-3.5.46-.37 1.46.29 1.46.29a3.37 3.37 0 0 0-3.22-2.85c-1.23-2.33-3.89-1.11-3.89-1.11-3.61-1.77-5.38.74-5.38.74-4.14.56-3.71 3.25-3.71 3.25a3.49 3.49 0 0 0 .11 4.52 1.57 1.57 0 0 1 .56.73 1.81 1.81 0 0 0-1.73 1 2.15 2.15 0 0 1 2.56.66A3.64 3.64 0 0 0 5.09 27a10 10 0 0 1-.62 2.66 1.41 1.41 0 0 1 1.13-.3c-1.42 1.34-.92 3.82-.92 3.82A3 3 0 0 1 6 31.84C4.87 33.34 5.12 36 5.12 36a4.29 4.29 0 0 1 1.46-1.27A3.7 3.7 0 0 0 6 37.39a5.38 5.38 0 0 1 .82-1.17c-.35 1.75.43 2.1.43 2.1a4.08 4.08 0 0 0 .25 3.35l.07.55s.33 0 2.41.14 2.84-.07 2.95-.86-1.5-1.35-2.08-1.49a4.31 4.31 0 0 1 .27-1.9 3.54 3.54 0 0 0 2.11-1.92c0 .23.25 1.08.25 1.08 1.35-.54 1.63-3 1.63-3a3.88 3.88 0 0 1 .5 1.29c1.1-.91 1.21-3.61 1.21-3.61a3.52 3.52 0 0 0 2.08 1.33 1.42 1.42 0 0 1 .25-1A4.66 4.66 0 0 0 22.81 34a.81.81 0 0 1 .18-.79C24 34.89 25 34.87 25 34.87a1.26 1.26 0 0 1 0-.87 3.2 3.2 0 0 0 2.39 1.81.65.65 0 0 1 .21-.83 3.09 3.09 0 0 0 1.1 1.1c.42-.46.7-.34.7-.34a5.36 5.36 0 0 0-.4 2.56c.19-.31.73-.43.79-.53a3.78 3.78 0 0 0-.31 2.43c.29-.6.59-.65.59-.65a3.39 3.39 0 0 0 .21 2v.1a.74.74 0 0 0 .18.59h4.7s.91 0 .79-.67a1.14 1.14 0 0 0-1.35-.94 3.51 3.51 0 0 1-.6-2.33 9.36 9.36 0 0 1 0-.94l.24-.28a5.62 5.62 0 0 0 1.81-2.34 4.16 4.16 0 0 1-.12 1.26 9.11 9.11 0 0 0 4-2.7 7.35 7.35 0 0 1-.21 1.45 4.51 4.51 0 0 0 1.76-3c.13.36.31 1.19.31 1.19a8.92 8.92 0 0 0 .81-3.54c.08.29.69 1.66.69 1.66a6.54 6.54 0 0 0 .06-3.06c.21.35 1 1.46 1 1.46a5 5 0 0 0-.35-3.54c.34.43 1.21 1.32 1.21 1.32a4.56 4.56 0 0 0-1.15-4.06z"/><path d="M7.74 28.27C10 29.55 11 25.6 11 25.6c.74-.86.85 2 .85 2 0 1 1.6 2.67 1.6 2.67l.39 5.8a4.22 4.22 0 0 0 .41 6.93l.12 1.74h4.27V43a4.22 4.22 0 0 0 0-7.24v-7l1.07-1.2c6.84 2.89 4.81-5.45 4.81-5.45 8.87-.54 7.84 11.33 7.84 11.33l.25 3a4.23 4.23 0 0 0 .56 6.52l.11 1.32h4.6l.12-1.41a4.23 4.23 0 0 0 .38-6.67l.07-1.2a37.21 37.21 0 0 0-2.13-14.21l1-.21a4.14 4.14 0 1 0 .1-6.92 2.6 2.6 0 0 0-.48.29 4.55 4.55 0 0 0-1.07 1.5l-.09.21v.13a4 4 0 0 0 .17 3.14l.07.15h-.92c-2.78-4.28-14-4.28-14-4.28l-.75-3.63c-.53-7.59-6.62-6-6.62-6-6.2 1.07-4.07 8.07-4.07 8.07l-3.1 10.33c-1.17 3.74 1.18 4.7 1.18 4.7zm29.52-13.08s.58-.44.33.87a3.43 3.43 0 0 0 .06 2s.44 1.09-.39.42a2.24 2.24 0 0 1 0-3.29zm0 21.13s1.61.59 1.71 3.15c0 0 .06.93-.41 0a8.91 8.91 0 0 0-1.34-2.33s-.79-1.06.03-.82zM18.5 15.87s.87 6.62 2 8.57c.74 1.5 2.32 2.12 3.11 1.8 0 0-3.55 1.12-4.33-2.18-.03 0-.58-1.06-.78-8.19zm-.78 20.41a3.34 3.34 0 0 1 1.87 3.16s-.12 1-.46 0a11.91 11.91 0 0 0-1.92-2.86s-.4-.58.51-.3zM11.38 16.2a28.73 28.73 0 0 0 .6 4.73 6.76 6.76 0 0 0 .86 2.13 2.14 2.14 0 0 0 .79.71 1.58 1.58 0 0 0 1 .1 3.11 3.11 0 0 0 1-.4 3.21 3.21 0 0 0 .84-.72 5.33 5.33 0 0 0 1-2.05 11.32 11.32 0 0 0 .37-2.33 15.88 15.88 0 0 0 0-2.39 12.22 12.22 0 0 1 0 4.82 6.15 6.15 0 0 1-.84 2.46 5.26 5.26 0 0 1-1 1.08 3.72 3.72 0 0 1-1 .5 2.51 2.51 0 0 1-1.67-.37 2.68 2.68 0 0 1-1-1 7.14 7.14 0 0 1-.7-2.5 19 19 0 0 1-.25-4.77zm-.72-3.65a5.5 5.5 0 0 0 7.76 0c-5.04 6.04-7.76 0-7.76 0zm0 3.78s-.53 6.85-.81 8.55c0 0-2.47-.88.81-8.55z" fill="url(#degrade_mas_oscuro_2-2)" transform="translate(50)"/><path fill="#cd3d2f" d="M109.62 11.57v-1.14c0-.06.05-.52.07-.73.08-.63.23-.92 2.79-.41 1 .21 2 .54 2 .54a.89.89 0 0 0 1.14-.44 2 2 0 0 1 1.7-.85c.46 0 1.48-.21 1.48-.21s.52 0 .48-.81c0 0 0-.93.45-.94s.92 1.69.92 1.69.3.7.81 0 1.17-1.68 1.71-1.81a10 10 0 0 1 .28 1.48 9 9 0 0 0 .21 1.69 18.79 18.79 0 0 1 .9 2.61 25.76 25.76 0 0 1-.09 4 8.28 8.28 0 0 0 .61 4 8.4 8.4 0 0 0 2.89 3 23.43 23.43 0 0 1 5.65 5.09 15.64 15.64 0 0 1 3 6.74.13.13 0 0 1 0 .06c.2 0 2.19-.16 2.23-1.54a1.27 1.27 0 0 0-.16-.7 2.53 2.53 0 0 0-2.27-.82h-.22s-.32 0 0-.36a2.33 2.33 0 0 1 2.51-1.44l.37.1h.13l.24.09h.12l.25.13h.08a4.06 4.06 0 0 1 .63.42l.24.21.09.1.13.14.09.11.11.13.08.12c0 .08.1.16.14.24v.15a3.74 3.74 0 0 1-.56 4 .81.81 0 0 1-.11.13l-.09.1A4.43 4.43 0 0 1 139 37.8a8.89 8.89 0 0 1-1.64.4c-.84.12-.9.25-1.06.76a5.33 5.33 0 0 1-2.74 2.22 30.89 30.89 0 0 1-7.7 1.6c-3.93.48-4.1.9-4.2-.43s.81-1.51 1.75-1.7l.94-.18s.72-.18.25-.41a3.38 3.38 0 0 1-2.68-2.69 5.14 5.14 0 0 1-.05-2.72c-.25-.07-.53-.17-.53-.17s-.11-.06-.19.09a1.1 1.1 0 0 0 0 .18c-.07.38-.13 2.88-.65 3.8s-.36 0-.62 1.14a6.1 6.1 0 0 1-1.21 3 2.76 2.76 0 0 1-2.29.56s-1.09 0-1.06-.31-.77-.15-.61-.49v-.07a.92.92 0 0 1-.23-1c.17-.33.62-.68 1.64-1l.42-.7s-.2-.09-1.14.17a1.68 1.68 0 0 1-1.87-.7c-.06-.16-.4-1 1.07-1.66.14-.07.29-.13.47-.2a.43.43 0 0 0 .2-.1v-.06a1 1 0 0 0 .2-.47c.07-.47.1-2.14.11-2.85v-.32s.12-1.25-1.68-3.31a9.21 9.21 0 0 1-1.62-3.7s-2.83-5.86.49-9.15a1.48 1.48 0 0 0-.54-2.33 4 4 0 0 1-2.59-3.4"/><path d="M17 13.76z" fill="url(#degrade_mas_oscuro_2-6)" transform="translate(150)"/><path d="M41.54 14c-.16-.38-.54-.74-.34-2.73s-.4-2.22-.4-2.22c-.54 0-1.12.87-1.59 1.39a2.47 2.47 0 0 1-2.87-.25c-.58-.74-1.05-1.79-1.68-1.79s-1.66 2.29-1.79 3.12-4 3.54-4.46 3.74a16 16 0 0 0-2.17 1.06 29.38 29.38 0 0 1-3.64 2.52c-.48.1-2.1.62-2.6-.13s.44-.92.44-.92c-.84-.31-1-.06-1-.06 0-.75.45-.91.45-.91a.66.66 0 0 0-.79 0c-.17-.73.14-.95.14-.95a.73.73 0 0 0-.69.35 1.06 1.06 0 0 1 .29-1.13 1.29 1.29 0 0 0-1.17.25.62.62 0 0 1 .36-.8c-.9-.22-1.22.13-1.22.13l-.09-.45c0-.44.17-.48.27-.48a1.87 1.87 0 0 0-1.36.26c-.12-.57.55-.82.55-.82a1.1 1.1 0 0 0-1.15.14c-.45-.64 0-.74 0-.74a1 1 0 0 0-1.1.77c-.34-.11-.57-1.06-.57-1.06a4.57 4.57 0 0 0-.9 1.27 1.13 1.13 0 0 1-.18-.91A1.42 1.42 0 0 0 11.11 14a1.36 1.36 0 0 1-.23-.86 2.07 2.07 0 0 0-.79 1.42 1.75 1.75 0 0 1-.29-.84c-.44.18-.36 1.87-.42 1.42-.1-.43-.9-.69-.9-.69l.3 1c-.28-.33-1.21-.15-1.21-.15a.89.89 0 0 1 .58 1.06c-.69-.19-.74 0-.74 0 .74.42.64 1 .64 1-.87.11-.8.38-.8.38.75.08.75.26.75.26-.55.16-.46.54-.46.54.82 0 .91.52.91.52a1.16 1.16 0 0 0-1.07 1c.79-.47 1.13 0 1.13 0-.6.09-.53.79-.53.79.34-.44.82.05.82.05-.47.27-.43.6-.43.6.31-.23 1.14.41 1.14.41-.76-.15-.74.3-.74.3.72 0 .49.32.49.32-2.55 6.22-.56 8.69.59 10.06s.87 2 .87 2c-.9 2.49-.54 9-.54 9.18 0 1 2.56 1.62 3.56 1.27a.81.81 0 0 0 .09-1.53c-.47-.23-1.41-.09-1.18-.92s2 .36 2.1.36c2.17.13 2.62-.7 2.62-.7a.92.92 0 0 0-.8-1.16c-.92.15-1.53-.54-1.68-1.75s-.45-1.41 1-2.82a7.39 7.39 0 0 0 2.2-4.1c.13-1.08.56-.63.56-.63.22 1 4.21 3.16 5.82 3.83a3.4 3.4 0 0 0 3.07-.62c1.52.16 1.12 2.42 1.28 3.43A5 5 0 0 0 30 40.56a14.2 14.2 0 0 0 2.87 4.1c2.37 1.14 4.5-1.08 4.75-1.77a1.15 1.15 0 0 0-1.08-1.37 2.56 2.56 0 0 1-1.27-.34 18.79 18.79 0 0 1-.56-6.18c.2-2.93 3.2-5.11 4-6.45a5.82 5.82 0 0 0 1-3.81c0-1.52 1.37-3.45 2.22-5.87a6.33 6.33 0 0 0-.39-4.87zm-29.1 18.14a13.15 13.15 0 0 0 0 1.61c-.57-.39-.89-2.41-.89-2.41a4.88 4.88 0 0 0-.55 1.53 5.47 5.47 0 0 1-.18-2.52 4.38 4.38 0 0 0-.63 1.08 4.72 4.72 0 0 1 .1-2.21c-.43.13-.85.87-.85.87a4.87 4.87 0 0 1 .66-2.41 1.81 1.81 0 0 0-1.27.62 1.84 1.84 0 0 1 1.87-1.86c-.88 4 4.35 6.38 4.35 6.38a1.88 1.88 0 0 1-1.4-.2c-.14.26.26 1.13.26 1.13a2.81 2.81 0 0 1-1.47-1.61zm2.5 3.43C14 36.75 13.05 37 12.61 41a12.37 12.37 0 0 1 .53-4.29c.5-1.27 1.19-.64 4.14-4.47 0 .01-.16 1.04-2.34 3.33zm-.46-13.89a1.26 1.26 0 0 0-1.38-.38s-1.66-.05-1.81-2.4a2.13 2.13 0 0 0 1.13.76 2.87 2.87 0 0 1-.67-2.61s.6 2.13 1.25 2.13a2.37 2.37 0 0 1-.19-2.73 1.45 1.45 0 0 0 .39 1.09 2.12 2.12 0 0 1 1-1.43s-.78 3 0 3.32a1.88 1.88 0 0 1 .88-1.71 3.22 3.22 0 0 0-.16 1.59 1.79 1.79 0 0 1 1.4-1s-.92.92-.87 1.41a3.81 3.81 0 0 1 1.86-.55s-3.21 1.25-2.83 2.51zM34.9 10.05c.38-.44 1 1.25 1 1.25a3.88 3.88 0 0 0-1.5.75 5.06 5.06 0 0 1 .5-2zm-7.2 23.1a10.26 10.26 0 0 0-.05-1.44 2.39 2.39 0 0 1-.92 1.53 3.53 3.53 0 0 1-2.07.92s1.75-.61 2.07-2c0 0-.75.85-1.35.91a2.42 2.42 0 0 0 .53-.91s-.24.46-1.62.78c0 0 .93-.5.83-1a3.91 3.91 0 0 1-2 1s1.05-.65 1.15-1a4.22 4.22 0 0 1-2.08.47 3.14 3.14 0 0 0 1.34-.74 2.31 2.31 0 0 1-1.34-2s.65 1.84 3.78 1.8 4.06-1.8 4.06-1.8l1.47.93-1.13-.17A4.31 4.31 0 0 0 31 31a8 8 0 0 1-1.44 0l.44 1-1-.64a1.38 1.38 0 0 1-.28 1.54 9.6 9.6 0 0 0-.19-1.25 2.67 2.67 0 0 1-.83 1.5zm2.35 4.12a7.34 7.34 0 0 0-1.34-2.21s1.11.07 1.78 1.82 2.27 6.71 2.27 6.71-2.4-5.51-2.71-6.32zm2.34-1.62a12.43 12.43 0 0 0 0 1.32l-.9-1 .3 1.74s-1.24-2.37-1.25-2.42c.83-.16 2.68-.45 2.68-.45.13.45.63 2.1.63 2.1s-1.37-1.18-1.46-1.29zm4-13a6.85 6.85 0 0 1-3.15-3.92c-.06.71-.18 1.5-.18 1.5-1.8-3.5-.4-5.72-.29-5.77s.42 2.39.67 3.15c1.22 3.59 3.15 4.68 3.15 4.68a5.58 5.58 0 0 1 2.6 3.44c-.19-.32-.49-1.42-2.81-3.1zm4-9.92a1.76 1.76 0 0 0-1.25-1.15s1-1.27 1.25-1.05.04 2.18.04 2.18z" fill="url(#degrade_mas_oscuro_2-7)" transform="translate(150)"/><path d="M44.06 23.18c.18.2 1.47 1.09 1.47 1.09a5.29 5.29 0 0 0-1.24-3.17c.27.14 1 .57 1 .57a5.45 5.45 0 0 0-1.74-2.91 5.53 5.53 0 0 1-1-2.26l2.32-2.06a4.67 4.67 0 0 0 .13-1.82c0-1.49-.2-1.46-.25-1.49A1 1 0 0 0 44 11a9 9 0 0 0-1.48.47c-.08 0-.49.17-.61 0a2.34 2.34 0 0 0-1.71-2.06c-.65-.21-2.6-.57-2.6-.57s-.84-1-1-1.3-.66.27-.89.53a1.49 1.49 0 0 1-.42.35c-1.34-.88-1.79-1.17-2.06-1s-.54 2.1-.54 2.1c-1-.17-1.52 1.48-1.52 1.48a1.72 1.72 0 0 1 1.15 0c-.79.21-1.17 1.85-1.17 1.85.38-.35 1 0 1 0a3.74 3.74 0 0 0-1.32 2.88c.23-.36.92-.33.92-.33a2.91 2.91 0 0 0-.55 2.47 1 1 0 0 1 .65-.76 2 2 0 0 1-.67 1.67c-.84.87-4.06 1.76-5.08 1.87s-3.53.19-3.53.19A2.51 2.51 0 0 0 22 19.4a6.28 6.28 0 0 1 1.61.71c.09-2.33-1-3.46-1.18-3.5.46-.37 1.46.29 1.46.29a3.35 3.35 0 0 0-3.22-2.85c-1.23-2.33-3.89-1.11-3.89-1.11-3.61-1.77-5.38.74-5.38.74-4.14.56-3.71 3.25-3.71 3.25a3.49 3.49 0 0 0 .11 4.52 1.57 1.57 0 0 1 .56.73 1.81 1.81 0 0 0-1.73 1 2.15 2.15 0 0 1 2.56.66A3.63 3.63 0 0 0 5.09 27a10 10 0 0 1-.62 2.67 1.37 1.37 0 0 1 1.13-.3c-1.42 1.34-.92 3.81-.92 3.81A2.93 2.93 0 0 1 6 31.84C4.87 33.34 5.12 36 5.12 36a4.29 4.29 0 0 1 1.46-1.27A3.7 3.7 0 0 0 6 37.39a5.38 5.38 0 0 1 .82-1.17c-.35 1.75.43 2.1.43 2.1a4.09 4.09 0 0 0 .25 3.35l.07.55s.33 0 2.41.14 2.84-.07 2.95-.86-1.5-1.35-2.08-1.49a4.31 4.31 0 0 1 .27-1.9 3.54 3.54 0 0 0 2.11-1.92c0 .23.25 1.08.25 1.08 1.35-.54 1.63-3 1.63-3a3.88 3.88 0 0 1 .5 1.29c1.1-.92 1.21-3.61 1.21-3.61a3.52 3.52 0 0 0 2.08 1.33 1.44 1.44 0 0 1 .25-1A4.65 4.65 0 0 0 22.81 34a.81.81 0 0 1 .18-.79c1 1.72 2.05 1.7 2.05 1.7A1.24 1.24 0 0 1 25 34a3.2 3.2 0 0 0 2.39 1.81.65.65 0 0 1 .21-.83 3.09 3.09 0 0 0 1.1 1.1c.42-.46.7-.34.7-.34a5.36 5.36 0 0 0-.4 2.56c.19-.31.73-.43.79-.54a3.81 3.81 0 0 0-.31 2.44c.29-.6.59-.65.59-.65a3.39 3.39 0 0 0 .21 2v.1a.72.72 0 0 0 .18.58h4.7s.91.06.79-.66a1.14 1.14 0 0 0-1.35-.94 3.51 3.51 0 0 1-.6-2.33 9.36 9.36 0 0 1 0-.94l.24-.29a5.54 5.54 0 0 0 1.81-2.33 4.16 4.16 0 0 1-.12 1.26 9.2 9.2 0 0 0 4-2.7 7.35 7.35 0 0 1-.21 1.45 4.51 4.51 0 0 0 1.76-3c.13.36.31 1.19.31 1.19a8.92 8.92 0 0 0 .81-3.54c.08.29.69 1.66.69 1.66a6.54 6.54 0 0 0 .06-3.06c.21.35 1 1.45 1 1.45a5 5 0 0 0-.35-3.54c.34.44 1.21 1.33 1.21 1.33a4.56 4.56 0 0 0-1.15-4.06zM21.67 25c-.12-.58-1.05-1.35-1.05-1.35a4 4 0 0 1-.5 2.45c0-.38-1.6-1.53-1.6-1.53a5.91 5.91 0 0 0 .69 2.23 4.65 4.65 0 0 1-3.44-2.69 5 5 0 0 0-.09 1.52c-1.25-.79-1.33-3-1.33-3a3.44 3.44 0 0 0-.67 1.17c-1.33-2.79.88-5.71.88-5.71a5 5 0 0 0 2.37 5.21c3.07 1.7 4.42-1.91 4.42-1.91a6.16 6.16 0 0 1 .32 3.61zM33.6 10.64c.09-1.87.54-2.12.54-2.12a1.69 1.69 0 0 1 1.13 1 2.16 2.16 0 0 1-1.67 1.12zm6.65.32a1.15 1.15 0 0 1 1 1.21c-.49.78-1.83.82-1.83.82a2.72 2.72 0 0 1 .83-1.99z" fill="url(#degrade_mas_oscuro_2)" transform="translate(0 50)"/><path fill="#cd3d2f" d="M57.74 78.27C60 79.55 61 75.6 61 75.6c.74-.86.85 2 .85 2 0 1 1.6 2.67 1.6 2.67l.39 5.8a4.22 4.22 0 0 0 .41 6.93l.12 1.74h4.27V93a4.22 4.22 0 0 0 0-7.24v-7l1.07-1.2c6.84 2.88 4.81-5.45 4.81-5.45 8.87-.54 7.84 11.33 7.84 11.33l.25 3a4.23 4.23 0 0 0 .56 6.52l.11 1.32h4.6l.12-1.41a4.23 4.23 0 0 0 .38-6.67l.07-1.2a37.21 37.21 0 0 0-2.13-14.21l1-.21a4.14 4.14 0 1 0 .1-6.92 2.6 2.6 0 0 0-.48.29 4.55 4.55 0 0 0-1.07 1.5l-.09.21v.13a4 4 0 0 0 .17 3.14l.07.15h-.92c-2.78-4.28-14-4.28-14-4.28l-.75-3.63c-.53-7.59-6.62-6-6.62-6-6.2 1.07-4.07 8.07-4.07 8.07l-3.1 10.32c-1.17 3.75 1.18 4.71 1.18 4.71z"/><path d="M25.24 28.49l-.08-.11z" fill="url(#degrade_mas_oscuro_2-3)" transform="translate(100 50)"/><path d="M16.13 11a1.05 1.05 0 0 0-1 1.19 2.67 2.67 0 0 0 1.72.31 1.44 1.44 0 0 0-.72-1.5z" fill="url(#degrade_mas_oscuro_2-4)" transform="translate(100 50)"/><path d="M41.49 32.26v-.14l-.14-.23-.08-.12-.11-.13-.16-.16-.13-.14-.09-.09a2.5 2.5 0 0 0-.28-.25 3.75 3.75 0 0 0-.62-.42h-.08l-.25-.13-.12-.05-.24-.09h-.12l-.37-.1a2.31 2.31 0 0 0-2.49 1.43c-.32.41 0 .36 0 .36h.18a2.51 2.51 0 0 1 2.25.82 1.33 1.33 0 0 1 .15.69c0 1.37-2 1.52-2.21 1.53a15.69 15.69 0 0 0-3-6.69 23.32 23.32 0 0 0-5.61-5.06 8.47 8.47 0 0 1-2.87-3 8.21 8.21 0 0 1-.6-4 26.72 26.72 0 0 0 .09-4 18.18 18.18 0 0 0-.9-2.6 8.85 8.85 0 0 1-.21-1.68 9.68 9.68 0 0 0-.28-1.47c-.53.13-1.19 1.11-1.7 1.8s-.8 0-.8 0-.48-1.7-.91-1.69-.45.94-.45.94c0 .78-.48.81-.48.81s-1 .17-1.47.2a2 2 0 0 0-1.68.85.9.9 0 0 1-1.14.44 19.91 19.91 0 0 0-1.95-.54c-2.54-.51-2.69-.22-2.76.4 0 .11 0 .27-.05.41v.07a1.13 1.13 0 0 0 0 .14v.06c-.26 3.2 1.42 4.24 2.71 4.75a1.28 1.28 0 0 1 .82 1 1.21 1.21 0 0 1-.22 1c-1.38 1.37-1.91 3.41-1.52 5.9a13.11 13.11 0 0 0 1 3.36v.11h.05A9.09 9.09 0 0 0 14.14 30a7 7 0 0 1 1.56 2.6v.7c0 .67-.16 2.64-.23 3.1a.88.88 0 0 1-.14.35l-.05.05a.24.24 0 0 1-.13.07 3.66 3.66 0 0 0-.48.2c-1.43.67-1.35 1.51-1.18 2a1.87 1.87 0 0 0 2.15.86 5.23 5.23 0 0 1 .63-.15l-.14.24a2.65 2.65 0 0 0-1.69 1 1.08 1.08 0 0 0 .16 1.18.41.41 0 0 0 0 .31 1 1 0 0 0 .63.41.24.24 0 0 0 .06.08c.24.27.91.29 1.14.28a4.38 4.38 0 0 0 .64.05 2.51 2.51 0 0 0 1.93-.71 5.77 5.77 0 0 0 1.19-2.82l.06-.27a4.71 4.71 0 0 1 .13-.51c.11-.06.24-.17.46-.56a10.21 10.21 0 0 0 .63-3.34v-.7a.41.41 0 0 1 0-.11l.23.08a5.32 5.32 0 0 0 .05 2.83 3.54 3.54 0 0 0 2.87 2.84h.06a.45.45 0 0 0 .11 0 .88.88 0 0 1-.39.19l-.93.19c-.94.18-1.85.36-1.74 1.68s.27.9 4.17.43a30.46 30.46 0 0 0 7.65-1.6 5.2 5.2 0 0 0 2.72-2.2c.16-.5.22-.64 1.06-.75a8.68 8.68 0 0 0 1.62-.4 4.3 4.3 0 0 0 1.74-1.09l.09-.1a.75.75 0 0 0 .11-.13 3.73 3.73 0 0 0 .6-4.02zM21.33 9.59a4.75 4.75 0 0 1 1.26-1.66 9.71 9.71 0 0 1 .1 2.56 1.51 1.51 0 0 1-1.36-.9zm-8.11 7.74a1.62 1.62 0 0 0-.71-2.5c-.76-.3-2.78-1.09-2.52-4.43v-.07a5.52 5.52 0 0 1 4.25 1l.13.13.11-.14a3.15 3.15 0 0 1 2.07-1.52 1.44 1.44 0 0 1 1.06.34.92.92 0 0 1 .42.64.68.68 0 0 1-.09.34 1.59 1.59 0 0 0-1.61-.89 8.33 8.33 0 0 0-.87.41l.1.17a1.39 1.39 0 0 1 1.1 0 1.28 1.28 0 0 1 .71.63 6.48 6.48 0 0 1 .11 1.13 2.89 2.89 0 0 1 1.52 2.6c0 .1-.1 2.43-2 2.82a7.35 7.35 0 0 1-.91.07c-1.25.05-3 .11-3.46 1.93v.08l.06.06s2.58 2.8 2 4.61a2.33 2.33 0 0 1-1.9 1.39c-.44-.81-2.51-5.89.43-8.8zm6.5 22.09l-.06.28a5.29 5.29 0 0 1-1.08 2.59 2.58 2.58 0 0 1-2.1.48 2 2 0 0 1-.8-.1v-.17h-.19a1.32 1.32 0 0 1-.43-.16l.09-.12-.06-.22H15s-.37-.37-.18-.74.48-.56 1.48-.84h.1l.54-.9-.07-.13-.06-.07c-.11-.09-.32-.16-1.35.12a1.41 1.41 0 0 1-1.56-.56c-.25-.62.37-1.06.93-1.33l.4-.17a.63.63 0 0 0 .33-.17l.1-.11a1.27 1.27 0 0 0 .24-.58c0-.27.11-1 .16-1.72.36 1.06 1.12 3.36.91 3.95l-.15.42.43-.1c.28-.06 2.68-.62 2.77-1.89a9.38 9.38 0 0 0-.51-3.66 3.42 3.42 0 0 1-.15-2.33.61.61 0 0 1 .48-.34.92.92 0 0 1 .81.17c.44.43.55 1.57.32 3.4v.16c0 .09 0 .29-.05.56a10.17 10.17 0 0 1-.56 3.13 1.13 1.13 0 0 1-.28.37c-.19.03-.22.16-.36.78zm2.52-2.32a4.9 4.9 0 0 1 0-2.58 6.37 6.37 0 0 1 2.15-3.37 5.54 5.54 0 0 1-.33.92 9.2 9.2 0 0 0 .3 7.08c.05.13.11.28.15.4a3.1 3.1 0 0 1-2.27-2.45zm7.43-4.2l-.11.13-.09.11c-.72-.22-.87-2.56-.91-3.56a5.56 5.56 0 0 1-1.19-.18c-.31-.62-1.22-.82-1.95-.83h-.47s-.31.05 0-.36a2.31 2.31 0 0 1 2.5-1.43l.36.1h.12l.25.09h.12l.25.13h.07a4.11 4.11 0 0 1 .63.43l.24.22.09.09.13.14.09.1.1.14a.76.76 0 0 1 .08.11c.05.08.09.16.14.23v.06l.05.09a3.73 3.73 0 0 1-.5 4.19z" fill="url(#degrade_mas_oscuro_2-5)" transform="translate(100 50)"/><g><path fill="#cd3d2f" d="M159.21 72.48s.23-.36-.49-.32c0 0 0-.45.74-.3 0 0-.83-.64-1.14-.41 0 0 0-.33.43-.6 0 0-.48-.49-.82-.05 0 0-.07-.7.53-.79 0 0-.34-.47-1.13 0A1.16 1.16 0 0 1 158.4 69s-.09-.55-.91-.52c0 0-.09-.38.46-.54 0 0 0-.15-.71-.31 0 0-.07-.27.8-.38 0 0 .1-.54-.64-1 0 0 0-.19.74 0a.89.89 0 0 0-.58-1.06s.93-.18 1.21.15c0 0-.15-.89-.3-1s.8.26.9.69c.06.45 0-1.24.42-1.42a1.75 1.75 0 0 0 .29.84 2.07 2.07 0 0 1 .79-1.42 1.36 1.36 0 0 0 .23.86 1.42 1.42 0 0 1 1.17-1.33 1.13 1.13 0 0 0 .18.91 4.57 4.57 0 0 1 .9-1.27s.23.95.57 1.06a1 1 0 0 1 1.08-.66s-.45.1 0 .74a1.1 1.1 0 0 1 1.15-.14s-.67.25-.55.82a1.82 1.82 0 0 1 1.4-.25s-.33-.12-.32.47l.09.45s.32-.35 1.22-.13a.62.62 0 0 0-.36.8 1.29 1.29 0 0 1 1.17-.25 1.06 1.06 0 0 0-.29 1.13.73.73 0 0 1 .69-.35s-.31.22-.14.95a.66.66 0 0 1 .79 0s-.44.16-.45.91c0 0 .16-.25 1 .06 0 0-.94.17-.44.92s2.12.23 2.6.13a29.38 29.38 0 0 0 3.64-2.52 16 16 0 0 1 2.17-1.06c.41-.2 4.33-2.91 4.46-3.74s1.17-3.11 1.83-3.11 1.1 1.05 1.68 1.79a2.47 2.47 0 0 0 2.87.25c.47-.52 1-1.39 1.59-1.39 0 0 .61.22.4 2.22s.18 2.35.34 2.73a6.33 6.33 0 0 1 .46 4.86c-.85 2.42-2.26 4.35-2.22 5.87a5.82 5.82 0 0 1-1 3.81c-.85 1.34-3.85 3.52-4 6.45a18.79 18.79 0 0 0 .54 6.16 2.56 2.56 0 0 0 1.27.34 1.15 1.15 0 0 1 1.08 1.37c-.25.69-2.38 2.91-4.75 1.77a14.2 14.2 0 0 1-2.92-4.1 5 5 0 0 1-1.16-2.11c-.16-1 .24-3.27-1.28-3.43a3.4 3.4 0 0 1-3.14.54c-1.61-.67-5.6-2.87-5.82-3.83 0 0-.43-.45-.56.63a7.39 7.39 0 0 1-2.2 4.1c-1.43 1.41-1.14 1.61-1 2.82s.76 1.9 1.68 1.75a.92.92 0 0 1 .8 1.16s-.45.83-2.62.7c-.13 0-1.88-1.19-2.1-.36s.71.69 1.18.92a.81.81 0 0 1-.09 1.55c-1 .35-3.56-.29-3.56-1.27 0-.15-.36-6.69.54-9.18 0 0 .27-.63-.87-2s-3.14-3.85-.59-10.07z"/></g></svg>